<?xml version="1.0" encoding="UTF-8" standalone="no"?>
<!DOCTYPE svg PUBLIC "-//W3C//DTD SVG 1.1//EN"
 "http://www.w3.org/Graphics/SVG/1.1/DTD/svg11.dtd">
<!-- Generated by graphviz version 14.1.3 (20260303.0454)
 -->
<!-- Title: KartifyAgent Pages: 1 -->
<svg width="940pt" height="1199pt"
 viewBox="0.00 0.00 940.00 1199.00" xmlns="http://www.w3.org/2000/svg" xmlns:xlink="http://www.w3.org/1999/xlink">
<g id="graph0" class="graph" transform="scale(1 1) rotate(0) translate(18 1180.8)">
<title>KartifyAgent</title>
<!-- channel -->
<g id="node1" class="node">
<title>channel</title>
<path fill="#e9f7fa" stroke="#176b87" stroke-width="1.5" d="M703.76,-1162.8C703.76,-1162.8 562.24,-1162.8 562.24,-1162.8 556.24,-1162.8 550.24,-1156.8 550.24,-1150.8 550.24,-1150.8 550.24,-1127.76 550.24,-1127.76 550.24,-1121.76 556.24,-1115.76 562.24,-1115.76 562.24,-1115.76 703.76,-1115.76 703.76,-1115.76 709.76,-1115.76 715.76,-1121.76 715.76,-1127.76 715.76,-1127.76 715.76,-1150.8 715.76,-1150.8 715.76,-1156.8 709.76,-1162.8 703.76,-1162.8"/>
<text xml:space="preserve" text-anchor="middle" x="633" y="-1143.18" font-family="DejaVu Sans" font-size="13.00" fill="#102433">Streamlit / Notebook</text>
<text xml:space="preserve" text-anchor="middle" x="633" y="-1127.58" font-family="DejaVu Sans" font-size="13.00" fill="#102433">conversation channel</text>
</g>
<!-- session -->
<g id="node2" class="node">
<title>session</title>
<path fill="#fff1e8" stroke="#e87950" stroke-width="1.5" d="M355.85,-1063.76C355.85,-1063.76 94.15,-1063.76 94.15,-1063.76 88.15,-1063.76 82.15,-1057.76 82.15,-1051.76 82.15,-1051.76 82.15,-1028.72 82.15,-1028.72 82.15,-1022.72 88.15,-1016.72 94.15,-1016.72 94.15,-1016.72 355.85,-1016.72 355.85,-1016.72 361.85,-1016.72 367.85,-1022.72 367.85,-1028.72 367.85,-1028.72 367.85,-1051.76 367.85,-1051.76 367.85,-1057.76 361.85,-1063.76 355.85,-1063.76"/>
<text xml:space="preserve" text-anchor="middle" x="225" y="-1044.14" font-family="DejaVu Sans" font-size="13.00" fill="#102433">Demo identity + session memory</text>
<text xml:space="preserve" text-anchor="middle" x="225" y="-1028.54" font-family="DejaVu Sans" font-size="13.00" fill="#102433">customer scope · active order · history</text>
</g>
<!-- channel&#45;&gt;session -->
<g id="edge1" class="edge">
<title>channel&#45;&gt;session</title>
<path fill="none" stroke="#5f7482" stroke-width="1.4" d="M549.94,-1118.53C486.95,-1103.54 399.88,-1082.83 331.72,-1066.62"/>
<polygon fill="#5f7482" stroke="#5f7482" stroke-width="1.4" points="332.63,-1064.14 324.72,-1064.96 331.41,-1069.25 332.63,-1064.14"/>
</g>
<!-- feedback -->
<g id="node13" class="node">
<title>feedback</title>
<path fill="#fff7d9" stroke="#ba8a18" stroke-width="1.5" d="M892.42,-996.72C892.42,-996.72 661.58,-996.72 661.58,-996.72 655.58,-996.72 649.58,-990.72 649.58,-984.72 649.58,-984.72 649.58,-961.68 649.58,-961.68 649.58,-955.68 655.58,-949.68 661.58,-949.68 661.58,-949.68 892.42,-949.68 892.42,-949.68 898.42,-949.68 904.42,-955.68 904.42,-961.68 904.42,-961.68 904.42,-984.72 904.42,-984.72 904.42,-990.72 898.42,-996.72 892.42,-996.72"/>
<text xml:space="preserve" text-anchor="middle" x="777" y="-977.1" font-family="DejaVu Sans" font-size="13.00" fill="#102433">Customer feedback</text>
<text xml:space="preserve" text-anchor="middle" x="777" y="-961.5" font-family="DejaVu Sans" font-size="13.00" fill="#102433">1–5 rating · resolved? · comment</text>
</g>
<!-- channel&#45;&gt;feedback -->
<g id="edge17" class="edge">
<title>channel&#45;&gt;feedback</title>
<path fill="none" stroke="#5f7482" stroke-width="1.4" d="M653.33,-1115.12C678.84,-1086.05 722.65,-1036.12 750.7,-1004.17"/>
<polygon fill="#5f7482" stroke="#5f7482" stroke-width="1.4" points="752.41,-1006.2 755.38,-998.84 748.46,-1002.74 752.41,-1006.2"/>
<text xml:space="preserve" text-anchor="middle" x="724.07" y="-1086.76" font-family="DejaVu Sans" font-size="10.00" fill="#435765">end conversation</text>
</g>
<!-- guardrail -->
<g id="node3" class="node">
<title>guardrail</title>
<path fill="#f4f8fa" stroke="#176b87" stroke-width="1.5" d="M335.89,-929.68C335.89,-929.68 114.11,-929.68 114.11,-929.68 108.11,-929.68 102.11,-923.68 102.11,-917.68 102.11,-917.68 102.11,-894.64 102.11,-894.64 102.11,-888.64 108.11,-882.64 114.11,-882.64 114.11,-882.64 335.89,-882.64 335.89,-882.64 341.89,-882.64 347.89,-888.64 347.89,-894.64 347.89,-894.64 347.89,-917.68 347.89,-917.68 347.89,-923.68 341.89,-929.68 335.89,-929.68"/>
<text xml:space="preserve" text-anchor="middle" x="225" y="-910.06" font-family="DejaVu Sans" font-size="13.00" fill="#102433">1 &#160;Input guardrail</text>
<text xml:space="preserve" text-anchor="middle" x="225" y="-894.46" font-family="DejaVu Sans" font-size="13.00" fill="#102433">unsafe instructions · empty input</text>
</g>
<!-- session&#45;&gt;guardrail -->
<g id="edge2" class="edge">
<title>session&#45;&gt;guardrail</title>
<path fill="none" stroke="#5f7482" stroke-width="1.4" d="M225,-1016.23C225,-995.06 225,-963.42 225,-939.67"/>
<polygon fill="#5f7482" stroke="#5f7482" stroke-width="1.4" points="227.63,-939.97 225,-932.47 222.38,-939.97 227.63,-939.97"/>
</g>
<!-- understand -->
<g id="node4" class="node">
<title>understand</title>
<path fill="#f4f8fa" stroke="#176b87" stroke-width="1.5" d="M353.16,-830.64C353.16,-830.64 196.84,-830.64 196.84,-830.64 190.84,-830.64 184.84,-824.64 184.84,-818.64 184.84,-818.64 184.84,-795.6 184.84,-795.6 184.84,-789.6 190.84,-783.6 196.84,-783.6 196.84,-783.6 353.16,-783.6 353.16,-783.6 359.16,-783.6 365.16,-789.6 365.16,-795.6 365.16,-795.6 365.16,-818.64 365.16,-818.64 365.16,-824.64 359.16,-830.64 353.16,-830.64"/>
<text xml:space="preserve" text-anchor="middle" x="275" y="-811.02" font-family="DejaVu Sans" font-size="13.00" fill="#102433">2 &#160;Understanding</text>
<text xml:space="preserve" text-anchor="middle" x="275" y="-795.42" font-family="DejaVu Sans" font-size="13.00" fill="#102433">intent · explicit entities</text>
</g>
<!-- guardrail&#45;&gt;understand -->
<g id="edge3" class="edge">
<title>guardrail&#45;&gt;understand</title>
<path fill="none" stroke="#5f7482" stroke-width="1.4" d="M236.85,-882.16C243.4,-869.45 251.64,-853.46 258.78,-839.6"/>
<polygon fill="#5f7482" stroke="#5f7482" stroke-width="1.4" points="260.99,-841.04 262.09,-833.17 256.32,-838.64 260.99,-841.04"/>
<text xml:space="preserve" text-anchor="middle" x="263.5" y="-853.64" font-family="DejaVu Sans" font-size="10.00" fill="#435765">safe</text>
</g>
<!-- respond -->
<g id="node11" class="node">
<title>respond</title>
<path fill="#f4f8fa" stroke="#176b87" stroke-width="1.5" d="M562.2,-251.76C562.2,-251.76 341.8,-251.76 341.8,-251.76 335.8,-251.76 329.8,-245.76 329.8,-239.76 329.8,-239.76 329.8,-216.72 329.8,-216.72 329.8,-210.72 335.8,-204.72 341.8,-204.72 341.8,-204.72 562.2,-204.72 562.2,-204.72 568.2,-204.72 574.2,-210.72 574.2,-216.72 574.2,-216.72 574.2,-239.76 574.2,-239.76 574.2,-245.76 568.2,-251.76 562.2,-251.76"/>
<text xml:space="preserve" text-anchor="middle" x="452" y="-232.14" font-family="DejaVu Sans" font-size="13.00" fill="#102433">7 &#160;Grounded response</text>
<text xml:space="preserve" text-anchor="middle" x="452" y="-216.54" font-family="DejaVu Sans" font-size="13.00" fill="#102433">answer · clarify · deny · handoff</text>
</g>
<!-- guardrail&#45;&gt;respond -->
<g id="edge4" class="edge">
<title>guardrail&#45;&gt;respond</title>
<path fill="none" stroke="#5f7482" stroke-width="1.4" d="M166.5,-881.97C137.25,-866.16 108,-841.9 108,-808.12 108,-808.12 108,-808.12 108,-315.28 108,-269.73 222.94,-248.09 319.94,-237.94"/>
<polygon fill="#5f7482" stroke="#5f7482" stroke-width="1.4" points="319.96,-240.58 327.16,-237.21 319.43,-235.35 319.96,-240.58"/>
<text xml:space="preserve" text-anchor="middle" x="127.52" y="-567.52" font-family="DejaVu Sans" font-size="10.00" fill="#435765">blocked</text>
</g>
<!-- context -->
<g id="node5" class="node">
<title>context</title>
<path fill="#f4f8fa" stroke="#176b87" stroke-width="1.5" d="M473.71,-742.6C473.71,-742.6 226.29,-742.6 226.29,-742.6 220.29,-742.6 214.29,-736.6 214.29,-730.6 214.29,-730.6 214.29,-707.56 214.29,-707.56 214.29,-701.56 220.29,-695.56 226.29,-695.56 226.29,-695.56 473.71,-695.56 473.71,-695.56 479.71,-695.56 485.71,-701.56 485.71,-707.56 485.71,-707.56 485.71,-730.6 485.71,-730.6 485.71,-736.6 479.71,-742.6 473.71,-742.6"/>
<text xml:space="preserve" text-anchor="middle" x="350" y="-722.98" font-family="DejaVu Sans" font-size="13.00" fill="#102433">3 &#160;Context resolver</text>
<text xml:space="preserve" text-anchor="middle" x="350" y="-707.38" font-family="DejaVu Sans" font-size="13.00" fill="#102433">latest order · pronouns · clarification</text>
</g>
<!-- understand&#45;&gt;context -->
<g id="edge5" class="edge">
<title>understand&#45;&gt;context</title>
<path fill="none" stroke="#5f7482" stroke-width="1.4" d="M295.1,-783.06C303.84,-773.03 314.21,-761.14 323.56,-750.41"/>
<polygon fill="#5f7482" stroke="#5f7482" stroke-width="1.4" points="325.5,-752.18 328.45,-744.8 321.55,-748.73 325.5,-752.18"/>
</g>
<!-- authorize -->
<g id="node6" class="node">
<title>authorize</title>
<path fill="#f4f8fa" stroke="#176b87" stroke-width="1.5" d="M423.4,-643.56C423.4,-643.56 276.6,-643.56 276.6,-643.56 270.6,-643.56 264.6,-637.56 264.6,-631.56 264.6,-631.56 264.6,-608.52 264.6,-608.52 264.6,-602.52 270.6,-596.52 276.6,-596.52 276.6,-596.52 423.4,-596.52 423.4,-596.52 429.4,-596.52 435.4,-602.52 435.4,-608.52 435.4,-608.52 435.4,-631.56 435.4,-631.56 435.4,-637.56 429.4,-643.56 423.4,-643.56"/>
<text xml:space="preserve" text-anchor="middle" x="350" y="-623.94" font-family="DejaVu Sans" font-size="13.00" fill="#102433">4 &#160;Authorization gate</text>
<text xml:space="preserve" text-anchor="middle" x="350" y="-608.34" font-family="DejaVu Sans" font-size="13.00" fill="#102433">customer owns order?</text>
</g>
<!-- context&#45;&gt;authorize -->
<g id="edge7" class="edge">
<title>context&#45;&gt;authorize</title>
<path fill="none" stroke="#5f7482" stroke-width="1.4" d="M350,-695.08C350,-682.73 350,-667.28 350,-653.7"/>
<polygon fill="#5f7482" stroke="#5f7482" stroke-width="1.4" points="352.63,-653.83 350,-646.33 347.38,-653.83 352.63,-653.83"/>
<text xml:space="preserve" text-anchor="middle" x="384.85" y="-666.56" font-family="DejaVu Sans" font-size="10.00" fill="#435765">context ready</text>
</g>
<!-- context&#45;&gt;respond -->
<g id="edge6" class="edge">
<title>context&#45;&gt;respond</title>
<path fill="none" stroke="#5f7482" stroke-width="1.4" d="M398.62,-694.81C407.91,-689.21 417.17,-682.74 425,-675.56 476.5,-628.34 510.98,-627.99 559,-445.48 576.29,-379.79 587.85,-351.07 553,-292.76 544.35,-278.28 530.98,-266.59 516.78,-257.37"/>
<polygon fill="#5f7482" stroke="#5f7482" stroke-width="1.4" points="518.4,-255.29 510.63,-253.61 515.66,-259.77 518.4,-255.29"/>
<text xml:space="preserve" text-anchor="middle" x="583.37" y="-468.48" font-family="DejaVu Sans" font-size="10.00" fill="#435765">missing slot</text>
</g>
<!-- tools -->
<g id="node7" class="node">
<title>tools</title>
<path fill="#f4f8fa" stroke="#176b87" stroke-width="1.5" d="M439.03,-544.52C439.03,-544.52 260.97,-544.52 260.97,-544.52 254.97,-544.52 248.97,-538.52 248.97,-532.52 248.97,-532.52 248.97,-509.48 248.97,-509.48 248.97,-503.48 254.97,-497.48 260.97,-497.48 260.97,-497.48 439.03,-497.48 439.03,-497.48 445.03,-497.48 451.03,-503.48 451.03,-509.48 451.03,-509.48 451.03,-532.52 451.03,-532.52 451.03,-538.52 445.03,-544.52 439.03,-544.52"/>
<text xml:space="preserve" text-anchor="middle" x="350" y="-524.9" font-family="DejaVu Sans" font-size="13.00" fill="#102433">5 &#160;Governed tool router</text>
<text xml:space="preserve" text-anchor="middle" x="350" y="-509.3" font-family="DejaVu Sans" font-size="13.00" fill="#102433">allowlisted read operations</text>
</g>
<!-- authorize&#45;&gt;tools -->
<g id="edge8" class="edge">
<title>authorize&#45;&gt;tools</title>
<path fill="none" stroke="#5f7482" stroke-width="1.4" d="M350,-596.04C350,-583.69 350,-568.24 350,-554.66"/>
<polygon fill="#5f7482" stroke="#5f7482" stroke-width="1.4" points="352.63,-554.79 350,-547.29 347.38,-554.79 352.63,-554.79"/>
<text xml:space="preserve" text-anchor="middle" x="390.01" y="-567.52" font-family="DejaVu Sans" font-size="10.00" fill="#435765">allow / safe skip</text>
</g>
<!-- orders -->
<g id="node8" class="node">
<title>orders</title>
<path fill="#edf5ff" stroke="#3b73b9" stroke-width="1.5" d="M277.12,-439.6C277.12,-442.84 247.03,-445.48 210,-445.48 172.97,-445.48 142.88,-442.84 142.88,-439.6 142.88,-439.6 142.88,-386.68 142.88,-386.68 142.88,-383.44 172.97,-380.8 210,-380.8 247.03,-380.8 277.12,-383.44 277.12,-386.68 277.12,-386.68 277.12,-439.6 277.12,-439.6"/>
<path fill="none" stroke="#3b73b9" stroke-width="1.5" d="M277.12,-439.6C277.12,-436.36 247.03,-433.72 210,-433.72 172.97,-433.72 142.88,-436.36 142.88,-439.6"/>
<text xml:space="preserve" text-anchor="middle" x="210" y="-417.04" font-family="DejaVu Sans" font-size="13.00" fill="#102433">Orders service</text>
<text xml:space="preserve" text-anchor="middle" x="210" y="-401.44" font-family="DejaVu Sans" font-size="13.00" fill="#102433">read&#45;only SQLite</text>
</g>
<!-- tools&#45;&gt;orders -->
<g id="edge9" class="edge">
<title>tools&#45;&gt;orders</title>
<path fill="none" stroke="#5f7482" stroke-width="1.4" d="M319.28,-496.77C301.72,-483.49 279.29,-466.53 259.32,-451.43"/>
<polygon fill="#5f7482" stroke="#5f7482" stroke-width="1.4" points="261.06,-449.46 253.49,-447.03 257.89,-453.65 261.06,-449.46"/>
</g>
<!-- products -->
<g id="node9" class="node">
<title>products</title>
<path fill="#edf5ff" stroke="#3b73b9" stroke-width="1.5" d="M547.56,-439.6C547.56,-442.84 492.18,-445.48 424,-445.48 355.82,-445.48 300.44,-442.84 300.44,-439.6 300.44,-439.6 300.44,-386.68 300.44,-386.68 300.44,-383.44 355.82,-380.8 424,-380.8 492.18,-380.8 547.56,-383.44 547.56,-386.68 547.56,-386.68 547.56,-439.6 547.56,-439.6"/>
<path fill="none" stroke="#3b73b9" stroke-width="1.5" d="M547.56,-439.6C547.56,-436.36 492.18,-433.72 424,-433.72 355.82,-433.72 300.44,-436.36 300.44,-439.6"/>
<text xml:space="preserve" text-anchor="middle" x="424" y="-417.04" font-family="DejaVu Sans" font-size="13.00" fill="#102433">Product evidence</text>
<text xml:space="preserve" text-anchor="middle" x="424" y="-401.44" font-family="DejaVu Sans" font-size="13.00" fill="#102433">items · warranty · return window</text>
</g>
<!-- tools&#45;&gt;products -->
<g id="edge10" class="edge">
<title>tools&#45;&gt;products</title>
<path fill="none" stroke="#5f7482" stroke-width="1.4" d="M366.24,-496.77C375,-484.24 386.05,-468.43 396.14,-454"/>
<polygon fill="#5f7482" stroke="#5f7482" stroke-width="1.4" points="398.26,-455.54 400.41,-447.89 393.96,-452.53 398.26,-455.54"/>
</g>
<!-- policy -->
<g id="node10" class="node">
<title>policy</title>
<path fill="#f4f8fa" stroke="#176b87" stroke-width="1.5" d="M529.07,-339.8C529.07,-339.8 318.93,-339.8 318.93,-339.8 312.93,-339.8 306.93,-333.8 306.93,-327.8 306.93,-327.8 306.93,-304.76 306.93,-304.76 306.93,-298.76 312.93,-292.76 318.93,-292.76 318.93,-292.76 529.07,-292.76 529.07,-292.76 535.07,-292.76 541.07,-298.76 541.07,-304.76 541.07,-304.76 541.07,-327.8 541.07,-327.8 541.07,-333.8 535.07,-339.8 529.07,-339.8"/>
<text xml:space="preserve" text-anchor="middle" x="424" y="-320.18" font-family="DejaVu Sans" font-size="13.00" fill="#102433">6 &#160;Policy engine</text>
<text xml:space="preserve" text-anchor="middle" x="424" y="-304.58" font-family="DejaVu Sans" font-size="13.00" fill="#102433">returns · cancellation boundary</text>
</g>
<!-- orders&#45;&gt;policy -->
<g id="edge11" class="edge">
<title>orders&#45;&gt;policy</title>
<path fill="none" stroke="#5f7482" stroke-width="1.4" d="M276.54,-382.65C304.22,-370.38 336.13,-356.23 363.18,-344.24"/>
<polygon fill="#5f7482" stroke="#5f7482" stroke-width="1.4" points="364.04,-346.73 369.84,-341.29 361.92,-341.93 364.04,-346.73"/>
</g>
<!-- products&#45;&gt;policy -->
<g id="edge12" class="edge">
<title>products&#45;&gt;policy</title>
<path fill="none" stroke="#5f7482" stroke-width="1.4" d="M424,-380.29C424,-370.52 424,-359.76 424,-349.94"/>
<polygon fill="#5f7482" stroke="#5f7482" stroke-width="1.4" points="426.63,-350.12 424,-342.62 421.38,-350.12 426.63,-350.12"/>
</g>
<!-- policy&#45;&gt;respond -->
<g id="edge13" class="edge">
<title>policy&#45;&gt;respond</title>
<path fill="none" stroke="#5f7482" stroke-width="1.4" d="M431.5,-292.22C434.58,-282.77 438.19,-271.67 441.52,-261.44"/>
<polygon fill="#5f7482" stroke="#5f7482" stroke-width="1.4" points="444,-262.32 443.82,-254.38 439,-260.7 444,-262.32"/>
</g>
<!-- critic -->
<g id="node12" class="node">
<title>critic</title>
<path fill="#eaf7f0" stroke="#2d966b" stroke-width="1.5" d="M645.76,-163.72C645.76,-163.72 412.24,-163.72 412.24,-163.72 406.24,-163.72 400.24,-157.72 400.24,-151.72 400.24,-151.72 400.24,-128.68 400.24,-128.68 400.24,-122.68 406.24,-116.68 412.24,-116.68 412.24,-116.68 645.76,-116.68 645.76,-116.68 651.76,-116.68 657.76,-122.68 657.76,-128.68 657.76,-128.68 657.76,-151.72 657.76,-151.72 657.76,-157.72 651.76,-163.72 645.76,-163.72"/>
<text xml:space="preserve" text-anchor="middle" x="529" y="-144.1" font-family="DejaVu Sans" font-size="13.00" fill="#102433">8 &#160;Response critic</text>
<text xml:space="preserve" text-anchor="middle" x="529" y="-128.5" font-family="DejaVu Sans" font-size="13.00" fill="#102433">grounding · access · policy · trace</text>
</g>
<!-- respond&#45;&gt;critic -->
<g id="edge14" class="edge">
<title>respond&#45;&gt;critic</title>
<path fill="none" stroke="#5f7482" stroke-width="1.4" d="M472.63,-204.18C481.7,-194.06 492.46,-182.03 502.13,-171.22"/>
<polygon fill="#5f7482" stroke="#5f7482" stroke-width="1.4" points="503.85,-173.24 506.9,-165.9 499.94,-169.74 503.85,-173.24"/>
</g>
<!-- critic&#45;&gt;channel -->
<g id="edge16" class="edge">
<title>critic&#45;&gt;channel</title>
<path fill="none" stroke="#5f7482" stroke-width="1.4" d="M585.87,-164.44C610.15,-178.46 633,-199.12 633,-227.24 633,-1041.24 633,-1041.24 633,-1041.24 633,-1062.66 633,-1086.74 633,-1105.56"/>
<polygon fill="#5f7482" stroke="#5f7482" stroke-width="1.4" points="630.38,-1105.52 633,-1113.02 635.63,-1105.52 630.38,-1105.52"/>
<text xml:space="preserve" text-anchor="middle" x="671.33" y="-617.04" font-family="DejaVu Sans" font-size="10.00" fill="#435765">answer + trace</text>
</g>
<!-- critic&#45;&gt;session -->
<g id="edge15" class="edge">
<title>critic&#45;&gt;session</title>
<path fill="none" stroke="#5f7482" stroke-width="1.4" d="M399.59,-149.67C242.98,-161.71 0,-186.88 0,-227.24 0,-907.16 0,-907.16 0,-907.16 0,-961.44 49.3,-993.84 101.74,-1012.96"/>
<polygon fill="#5f7482" stroke="#5f7482" stroke-width="1.4" points="100.58,-1015.33 108.52,-1015.33 102.31,-1010.37 100.58,-1015.33"/>
<text xml:space="preserve" text-anchor="middle" x="40.1" y="-567.52" font-family="DejaVu Sans" font-size="10.00" fill="#435765">update memory</text>
</g>
<!-- analytics -->
<g id="node14" class="node">
<title>analytics</title>
<path fill="#fff7d9" stroke="#ba8a18" stroke-width="1.5" d="M831.3,-58.8C831.3,-62.04 763.04,-64.68 679,-64.68 594.96,-64.68 526.7,-62.04 526.7,-58.8 526.7,-58.8 526.7,-5.88 526.7,-5.88 526.7,-2.64 594.96,0 679,0 763.04,0 831.3,-2.64 831.3,-5.88 831.3,-5.88 831.3,-58.8 831.3,-58.8"/>
<path fill="none" stroke="#ba8a18" stroke-width="1.5" d="M831.3,-58.8C831.3,-55.56 763.04,-52.92 679,-52.92 594.96,-52.92 526.7,-55.56 526.7,-58.8"/>
<text xml:space="preserve" text-anchor="middle" x="679" y="-36.24" font-family="DejaVu Sans" font-size="13.00" fill="#102433">Quality analytics</text>
<text xml:space="preserve" text-anchor="middle" x="679" y="-20.64" font-family="DejaVu Sans" font-size="13.00" fill="#102433">CSAT · resolution · task success · latency</text>
</g>
<!-- critic&#45;&gt;analytics -->
<g id="edge19" class="edge">
<title>critic&#45;&gt;analytics</title>
<path fill="none" stroke="#5f7482" stroke-width="1.4" d="M561.92,-115.97C580.66,-102.74 604.58,-85.86 625.91,-70.8"/>
<polygon fill="#5f7482" stroke="#5f7482" stroke-width="1.4" points="627.3,-73.04 631.91,-66.57 624.27,-68.75 627.3,-73.04"/>
<text xml:space="preserve" text-anchor="middle" x="650.38" y="-87.68" font-family="DejaVu Sans" font-size="10.00" fill="#435765">automated signals</text>
</g>
<!-- feedback&#45;&gt;analytics -->
<g id="edge18" class="edge">
<title>feedback&#45;&gt;analytics</title>
<path fill="none" stroke="#5f7482" stroke-width="1.4" d="M771.85,-949.07C767.17,-926.03 761,-889.57 761,-857.64 761,-857.64 761,-857.64 761,-139.2 761,-113.32 745.49,-89.93 727.97,-71.76"/>
<polygon fill="#5f7482" stroke="#5f7482" stroke-width="1.4" points="730.13,-70.2 722.95,-66.79 726.43,-73.93 730.13,-70.2"/>
</g>
</g>
</svg>
